<?xml version="1.0" standalone="no"?>
<!DOCTYPE svg PUBLIC "-//W3C//DTD SVG 20010904//EN"
 "http://www.w3.org/TR/2001/REC-SVG-20010904/DTD/svg10.dtd">
<svg version="1.0" xmlns="http://www.w3.org/2000/svg"
 width="700.000000pt" height="700.000000pt" viewBox="0 0 700.000000 700.000000"
 preserveAspectRatio="xMidYMid meet">
<metadata>
Created by potrace 1.14, written by Peter Selinger 2001-2017
</metadata>
<g transform="translate(0.000000,700.000000) scale(0.100000,-0.100000)"
fill="#000000" stroke="none">
<path d="M0 3500 l0 -3500 3500 0 3500 0 0 3500 0 3500 -3500 0 -3500 0 0
-3500z m1764 2702 c231 -85 381 -285 393 -527 9 -174 -48 -318 -176 -445 -115
-115 -247 -170 -404 -170 -105 0 -168 15 -267 63 -201 98 -323 298 -323 528 1
215 118 409 307 510 102 55 165 69 296 66 88 -3 129 -9 174 -25z m396 -3127
l0 -1765 -587 2 -588 3 -3 1763 -2 1762 590 0 590 0 0 -1765z m1373 1743 c10
-37 767 -3499 767 -3504 0 -2 -258 -4 -574 -4 -539 0 -575 1 -580 18 -8 27
-766 3492 -766 3503 0 5 231 9 574 9 l574 0 5 -22z m1985 -1731 c210 -963 383
-1758 382 -1764 0 -10 -121 -13 -573 -13 l-573 0 -384 1752 c-211 964 -385
1759 -388 1766 -3 9 116 12 574 12 l579 0 383 -1753z"/>
</g>
</svg>
